# xmcd
#
# Track frame offsets: 
#        150
#        17165
#        32228
#        45771
#        62544
#        76692
#        88661
#        108023
#        120112
#        139948
#        153569
#        166429
#        176975
#        190937
#        205023
#        218675
#        230311
#        242294
#        254391
#        265976
#        274637
#        284489
#        293396
#        306084
#
# Disc length: 4227 seconds
#
# Revision: 0
# Processed by: cddbd v1.5.2PL0 Copyright (c) Steve Scherf et al.
# Submitted via: ExactAudioCopy v1.3
#
DISCID=3c108118
DTITLE=Cab Calloway - Blues Makes Me Happy
DYEAR=2018
DGENRE=Blues
TTITLE0=Blues in the Night
TTITLE1=Basin Street Blues
TTITLE2=I gotta right to sing the Blues
TTITLE3=Learnin the Blues
TTITLE4=Don't worry about me
TTITLE5=St. Louis Blues
TTITLE6=One for my Baby
TTITLE7=The Birth of the Blues
TTITLE8=Blue Prelude
TTITLE9=I get the Blues when it rains
TTITLE10=Cry me a River
TTITLE11=Blues my naughty Sweety gives to me
TTITLE12=Little Child
TTITLE13=The Voice
TTITLE14=Remember when
TTITLE15=Chigger chigger wa wa
TTITLE16=I'll be worthy of You
TTITLE17=Dear Santa, have you got the Measles?
TTITLE18=If Santa was my Daddy
TTITLE19=The Music goes round and round
TTITLE20=Lost Weekend
TTITLE21=Dancing Man
TTITLE22=I'll follow you
TTITLE23=Just wait
EXTD=
EXTT0=
EXTT1=
EXTT2=
EXTT3=
EXTT4=
EXTT5=
EXTT6=
EXTT7=
EXTT8=
EXTT9=
EXTT10=
EXTT11=
EXTT12=
EXTT13=
EXTT14=
EXTT15=
EXTT16=
EXTT17=
EXTT18=
EXTT19=
EXTT20=
EXTT21=
EXTT22=
EXTT23=
PLAYORDER=
